<?xml version="1.0" encoding="UTF-8" standalone="no"?>
<!-- Created with Inkscape (http://www.inkscape.org/) -->

<svg
   xmlns:dc="http://purl.org/dc/elements/1.1/"
   xmlns:cc="http://creativecommons.org/ns#"
   xmlns:rdf="http://www.w3.org/1999/02/22-rdf-syntax-ns#"
   xmlns:svg="http://www.w3.org/2000/svg"
   xmlns="http://www.w3.org/2000/svg"
   xmlns:sodipodi="http://sodipodi.sourceforge.net/DTD/sodipodi-0.dtd"
   xmlns:inkscape="http://www.inkscape.org/namespaces/inkscape"
   width="898"
   height="272"
   version="1.1"
   viewBox="0 0 898 272"
   id="svg100"
   sodipodi:docname="logo.svg"
   inkscape:version="0.92.3 (2405546, 2018-03-11)">
  <defs
     id="defs104" />
  <sodipodi:namedview
     pagecolor="#ffffff"
     bordercolor="#666666"
     borderopacity="1"
     objecttolerance="10"
     gridtolerance="10"
     guidetolerance="10"
     inkscape:pageopacity="0"
     inkscape:pageshadow="2"
     inkscape:window-width="1833"
     inkscape:window-height="945"
     id="namedview102"
     showgrid="false"
     inkscape:zoom="1.7323329"
     inkscape:cx="515.84014"
     inkscape:cy="123.70474"
     inkscape:window-x="1318"
     inkscape:window-y="730"
     inkscape:window-maximized="0"
     inkscape:current-layer="g58" />
  <metadata
     id="metadata2">
    <rdf:RDF>
      <cc:Work
         rdf:about="">
        <dc:format>image/svg+xml</dc:format>
        <dc:type
           rdf:resource="http://purl.org/dc/dcmitype/StillImage" />
        <dc:title />
      </cc:Work>
    </rdf:RDF>
  </metadata>
  <g
     transform="translate(0 -554.5)"
     id="g98">
    <path
       d="m312 554.5v272h586v-272z"
       fill="#fff"
       id="path4" />
    <rect
       x="1320"
       y="106.5"
       width="360"
       height="720"
       fill="#fff"
       id="rect6" />
    <g
       id="g58">
      <path
         transform="translate(0,626.5)"
         d="M 312,-72 V 200 H 898 V -72 Z m 2,2 H 896 V 198 H 314 Z"
         id="path8"
         inkscape:connector-curvature="0"
         sodipodi:nodetypes="cccccccccc" />
      <g
         aria-label="Lomokai"
         id="g24">
        <path
           d="m357.6 660.61v-58.712h6.3904v52.96h22.207v5.7514z"
           id="path10" />
        <path
           d="m410.32 661.25q-3.4348 0-6.63-1.358-3.1952-1.358-5.352-4.0739-2.0769-2.7159-2.9556-5.991-0.87868-3.355-0.87868-6.7898v-7.1892q0-3.4348 0.87868-6.7099 0.87868-3.355 2.9556-6.0709 2.1568-2.7159 5.352-4.0739 3.1952-1.358 6.63-1.358t6.63 1.358q3.1952 1.358 5.2721 4.0739 2.1568 2.7159 3.0354 6.0709 0.87868 3.2751 0.87868 6.7099v7.1892q0 3.4348-0.87868 6.7898-0.87868 3.2751-3.0354 5.991-2.0769 2.7159-5.2721 4.0739-3.1952 1.358-6.63 1.358zm0-5.7514q2.2366 0 4.1538-1.0384 1.997-1.1183 3.1952-2.9556 1.1982-1.9171 1.5976-4.0739 0.47928-2.1568 0.47928-4.3934v-7.1892q0-2.2366-0.47928-4.3934-0.3994-2.1568-1.5976-3.994-1.1982-1.9171-3.1952-2.9556-1.9171-1.1183-4.1538-1.1183t-4.2336 1.1183q-1.9171 1.0384-3.1153 2.9556-1.1982 1.8372-1.6775 3.994-0.3994 2.1568-0.3994 4.3934v7.1892q0 2.2366 0.3994 4.3934 0.47928 2.1568 1.6775 4.0739 1.1982 1.8372 3.1153 2.9556 1.997 1.0384 4.2336 1.0384z"
           id="path12" />
        <path
           d="m434.44 660.61v-42.336h6.3904v2.5562q0.23964-0.3994 0.55916-0.7988 1.8372-2.3964 4.5532-2.3964 2.7958 0 4.633 2.3964 1.1183 1.4378 1.7574 3.0354 0.55916-1.5976 1.6775-3.0354 1.8372-2.3964 4.5532-2.3964 2.7958 0 4.633 2.3964 1.8372 2.3165 2.3165 5.0324 0.55916 2.7159 0.55916 5.5117v30.035h-6.3904v-30.035q0-1.4378-0.23964-2.7958-0.15976-1.4378-0.7988-2.8757-0.63904-1.5177-2.0769-1.5177-1.4378 0-2.0769 1.5177-0.63904 1.4378-0.87868 2.7958-0.15976 1.358-0.15976 2.8757v30.035h-6.3904v-30.035q0-1.4378-0.23964-2.7958-0.15976-1.4378-0.7988-2.8757-0.63904-1.5177-2.0769-1.5177-1.4378 0-2.0769 1.5177-0.63904 1.4378-0.87868 2.8757-0.15976 1.358-0.15976 2.7958v30.035z"
           id="path14" />
        <path
           d="m490.2 661.25q-3.4348 0-6.63-1.358t-5.352-4.0739q-2.0769-2.7159-2.9556-5.991-0.87868-3.355-0.87868-6.7898v-7.1892q0-3.4348 0.87868-6.7099 0.87869-3.355 2.9556-6.0709 2.1568-2.7159 5.352-4.0739t6.63-1.358q3.4348 0 6.63 1.358t5.2721 4.0739q2.1568 2.7159 3.0354 6.0709 0.87868 3.2751 0.87868 6.7099v7.1892q0 3.4348-0.87868 6.7898-0.87868 3.2751-3.0354 5.991-2.0769 2.7159-5.2721 4.0739t-6.63 1.358zm0-5.7514q2.2366 0 4.1538-1.0384 1.997-1.1183 3.1952-2.9556 1.1982-1.9171 1.5976-4.0739 0.47928-2.1568 0.47928-4.3934v-7.1892q0-2.2366-0.47928-4.3934-0.3994-2.1568-1.5976-3.994-1.1982-1.9171-3.1952-2.9556-1.9171-1.1183-4.1538-1.1183-2.2366 0-4.2336 1.1183-1.9171 1.0384-3.1153 2.9556-1.1982 1.8372-1.6775 3.994-0.3994 2.1568-0.3994 4.3934v7.1892q0 2.2366 0.3994 4.3934 0.47928 2.1568 1.6775 4.0739 1.1982 1.8372 3.1153 2.9556 1.997 1.0384 4.2336 1.0384z"
           id="path16" />
        <path
           d="m514.96 660.61v-58.712h6.3904v34.987q0.55916-0.47928 1.1183-0.87868 1.358-1.0384 2.7159-2.1568 1.358-1.1183 2.636-2.2366 1.358-1.1982 2.636-2.3165 1.2781-1.1982 2.4763-2.3964 1.2781-1.2781 2.3165-2.5562 1.1183-1.358 2.2366-2.7958 1.1183-1.5177 1.1183-3.2751h6.7099q0 2.0769-1.1982 3.8342t-2.4763 3.355q-1.2781 1.5976-2.636 3.1153-1.358 1.4378-2.7958 2.8757-1.4378 1.358-2.7958 2.7159 12.541 19.73 12.541 26.44h-6.3904q0-5.7514-10.784-22.366-0.87868 0.71892-1.6775 1.4378-1.5976 1.2781-3.1952 2.5562-1.2781 1.0384-2.5562 1.997v16.375z"
           id="path18" />
        <path
           d="m566.57 661.25q-2.4763 0-4.8727-0.7988-2.3964-0.7988-4.1538-2.636t-2.5562-4.2336q-0.71892-2.3964-0.71892-4.8727t0.87868-4.7928q0.87868-2.3964 2.7159-4.0739 1.8372-1.7574 4.0739-2.7159 2.3165-1.0384 4.7129-1.4378 2.4763-0.3994 4.9526-0.3994h7.2691v-3.6745q0-1.7574-0.63904-3.355-0.63904-1.6775-1.997-2.7958-1.2781-1.1183-2.9556-1.5976t-3.4348-0.47928q-1.997 0-3.994 0.71892-1.997 0.63904-3.355 2.3165-1.358 1.6775-1.5976 3.6745l-6.1508-1.4378q0.47928-3.355 2.7958-6.0709 2.3165-2.7958 5.5916-3.8342 3.355-1.1183 6.7099-1.1183 2.9556 0 5.8312 0.7988 2.8757 0.7988 5.1123 2.7159 2.3165 1.9171 3.355 4.7129 1.1183 2.7958 1.1183 5.7514v28.996h-6.3904v-5.991q-0.55916 0.95856-1.2781 1.8372-1.997 2.3964-4.9526 3.5946-2.9556 1.1982-6.0709 1.1982zm-5.9111-12.541q0 1.9171 1.0384 3.6745 1.1183 1.7574 2.9556 2.4763 1.9171 0.63904 3.9141 0.63904 2.0769 0 4.0739-0.71892t3.4348-2.2366q1.5177-1.5976 2.1568-3.5946 0.63904-2.0769 0.63904-4.1538v-3.7544h-7.2691q-1.8372 0-3.7544 0.31952-1.8372 0.31952-3.5147 1.2781-1.6775 0.87868-2.7159 2.5562-0.95857 1.5976-0.95857 3.5147z"
           id="path20" />
        <path
           d="m596.04 660.61v-5.7514h11.343v-30.834h-10.225v-5.7514h16.615v36.585h10.225v5.7514zm13.979-49.765q-1.358 0-2.636-0.55916-1.1982-0.55916-1.7574-1.7574-0.55916-1.2781-0.55916-2.636-0.0799-1.358 0.47928-2.5562 0.63904-1.2781 1.8372-1.8372 1.2781-0.55916 2.636-0.63904 1.358 0 2.5562 0.63904 1.2781 0.55916 1.8372 1.8372 0.55916 1.1982 0.63904 2.5562-0.0799 1.358-0.63904 2.636-0.55916 1.1982-1.8372 1.7574-1.1982 0.55916-2.5562 0.55916z"
           id="path22" />
      </g>
      <g
         aria-label="Atom Syntax Theme"
         id="g56">
        <path
           d="m357.73 704.42v-1.8089q0-4.8644 3.6666-16.158h1.9555q3.6666 11.293 3.6666 16.158v1.8089h-1.9555v-1.8089q0-1.2222-0.22-2.9089h-4.9377q-0.21999 1.6866-0.21999 2.9089v1.8089zm6.8444-6.4777q-0.66-3.7644-2.2-9.2644-1.54 5.5-2.2 9.2644z"
           id="path26" />
        <path
           d="m376.45 704.62q-0.90444 0-1.76-0.39111-0.8311-0.3911-1.3689-1.1244-0.51333-0.75777-0.73333-1.6378-0.19556-0.87999-0.19556-1.7844v-6.4533h-2.6644v-1.76h2.6644v-5.0111h1.9555v5.0111h3.9355v1.76h-3.9355v6.4533q0 0.70889 0.14667 1.4178 0.17111 0.68444 0.70888 1.2222 0.53778 0.53778 1.2467 0.53778 0.61111 0 1.1-0.41556 0.51333-0.41555 0.70888-1.0022 0.22-0.58666 0.26889-1.2222l1.9066 0.41555q-0.0733 0.78222-0.36666 1.5155-0.29333 0.73333-0.83111 1.32-0.53777 0.58666-1.2955 0.87999-0.73333 0.26889-1.4911 0.26889z"
           id="path28" />
        <path
           d="m386.82 704.62q-1.0511 0-2.0289-0.41555t-1.6378-1.2467q-0.63555-0.8311-0.90443-1.8333-0.26889-1.0266-0.26889-2.0778v-2.2q0-1.0511 0.26889-2.0533 0.26888-1.0266 0.90443-1.8578 0.66-0.8311 1.6378-1.2467 0.97777-0.41555 2.0289-0.41555t2.0289 0.41555q0.97777 0.41556 1.6133 1.2467 0.66 0.83111 0.92889 1.8578 0.26888 1.0022 0.26888 2.0533v2.2q0 1.0511-0.26888 2.0778-0.26889 1.0022-0.92889 1.8333-0.63555 0.83111-1.6133 1.2467t-2.0289 0.41555zm0-1.76q0.68444 0 1.2711-0.31778 0.61111-0.34222 0.97777-0.90444 0.36667-0.58666 0.48889-1.2466 0.14666-0.66 0.14666-1.3444v-2.2q0-0.68444-0.14666-1.3444-0.12222-0.66-0.48889-1.2222-0.36666-0.58666-0.97777-0.90443-0.58666-0.34222-1.2711-0.34222t-1.2955 0.34222q-0.58667 0.31777-0.95333 0.90443-0.36666 0.56222-0.51333 1.2222-0.12222 0.65999-0.12222 1.3444v2.2q0 0.68444 0.12222 1.3444 0.14667 0.65999 0.51333 1.2466 0.36666 0.56222 0.95333 0.90444 0.6111 0.31778 1.2955 0.31778z"
           id="path30" />
        <path
           d="m394.2 704.42v-12.955h1.9555v0.78221q0.0733-0.12222 0.17111-0.24444 0.56221-0.73333 1.3933-0.73333 0.85555 0 1.4178 0.73333 0.34222 0.44 0.53778 0.92888 0.17111-0.48888 0.51333-0.92888 0.56221-0.73333 1.3933-0.73333 0.85555 0 1.4178 0.73333 0.56221 0.70888 0.70888 1.54 0.17111 0.8311 0.17111 1.6866v9.191h-1.9555v-9.191q0-0.44-0.0733-0.85555-0.0489-0.43999-0.24445-0.87999-0.19555-0.46444-0.63555-0.46444-0.43999 0-0.63555 0.46444-0.19555 0.44-0.26888 0.85555-0.0489 0.41555-0.0489 0.87999v9.191h-1.9555v-9.191q0-0.44-0.0733-0.85555-0.0489-0.43999-0.24444-0.87999-0.19555-0.46444-0.63555-0.46444-0.43999 0-0.63555 0.46444-0.19555 0.44-0.26889 0.87999-0.0489 0.41555-0.0489 0.85555v9.191z"
           id="path32" />
        <path
           d="m423.41 704.62q-1.1489 0-2.2489-0.41555-1.0756-0.41555-1.76-1.3933t-0.68444-2.1511v-0.0244l1.9311-0.26889q0 0.0978 0 0.17111 0 0.68444 0.39111 1.2711 0.41555 0.56222 1.0511 0.80666 0.63555 0.24445 1.32 0.24445 0.73333 0 1.3933-0.31778 0.68444-0.31777 1.0267-0.97777 0.34222-0.68444 0.34222-1.4178 0-1.2466-0.92888-2.2-0.92888-0.97777-2.0533-1.54-1.1-0.58666-2.1266-1.3444-1.0022-0.75777-1.6133-1.8822-0.61111-1.1489-0.61111-2.42 0-0.90443 0.34222-1.7844 0.34222-0.87999 1.0022-1.5155 0.68444-0.63555 1.5644-0.90444 0.90444-0.29333 1.8089-0.29333 1.1489 0 2.2244 0.41555 1.1 0.41556 1.7844 1.3933t0.68444 2.1511v0.0244l-1.9311 0.26889q0-0.0978 0-0.17111 0-0.68444-0.41555-1.2467-0.39111-0.58666-1.0267-0.8311t-1.32-0.24444q-0.73332 0-1.4178 0.31777-0.66 0.31778-1.0022 1.0022-0.34222 0.65999-0.34222 1.3933 0 1.2467 0.92889 2.2244 0.92888 0.95332 2.0289 1.54 1.1244 0.56222 2.1266 1.32 1.0267 0.75777 1.6378 1.9066 0.61111 1.1244 0.61111 2.3955 0 0.90444-0.34222 1.7844t-1.0267 1.5155q-0.65999 0.63555-1.5644 0.92888-0.87999 0.26889-1.7844 0.26889z"
           id="path34" />
        <path
           d="m433.51 709.43v-0.17111q0-1.4667 0.29333-2.3222l0.90444-2.64-2.8111-7.9199q-0.83111-2.3711-0.83111-4.0089v-0.90443h1.9555v0.90443q0 1.2711 0.73333 3.4222l1.9311 5.72 1.98-5.72q0.73333-2.1022 0.73333-3.4222v-0.90443h1.9555v0.90443q0 1.5889-0.83111 4.0089l-3.8622 11.147q-0.19555 0.53777-0.19555 1.7355v0.17111z"
           id="path36" />
        <path
           d="m443.28 704.42v-12.955h1.9555v1.8578q0.24444-0.44 0.56221-0.83111 0.51333-0.58666 1.2222-0.90443 0.73332-0.31778 1.5155-0.31778 0.75777 0 1.4911 0.31778 0.73333 0.31777 1.2222 0.92888 0.51333 0.58666 0.80666 1.32 0.29333 0.70888 0.39111 1.4666 0.12222 0.75777 0.12222 1.54v7.5777h-1.9555v-7.5777q0-0.65999-0.12222-1.2955-0.12222-0.66-0.44-1.2222-0.31777-0.58666-0.90443-0.92888-0.56222-0.36666-1.2222-0.36666-0.65999 0-1.2466 0.36666-0.56222 0.34222-0.88 0.92888-0.31777 0.56222-0.43999 1.2222-0.12222 0.63555-0.12222 1.2955v7.5777z"
           id="path38" />
        <path
           d="m462.01 704.62q-0.90444 0-1.76-0.39111-0.8311-0.3911-1.3689-1.1244-0.51333-0.75777-0.73333-1.6378-0.19556-0.87999-0.19556-1.7844v-6.4533h-2.6644v-1.76h2.6644v-5.0111h1.9555v5.0111h3.9355v1.76h-3.9355v6.4533q0 0.70889 0.14667 1.4178 0.17111 0.68444 0.70888 1.2222 0.53778 0.53778 1.2467 0.53778 0.61111 0 1.1-0.41556 0.51333-0.41555 0.70888-1.0022 0.22-0.58666 0.26889-1.2222l1.9066 0.41555q-0.0733 0.78222-0.36666 1.5155-0.29333 0.73333-0.83111 1.32-0.53777 0.58666-1.2955 0.87999-0.73333 0.26889-1.4911 0.26889z"
           id="path40" />
        <path
           d="m471.3 704.62q-0.75777 0-1.4911-0.24444t-1.2711-0.80666-0.78221-1.2956q-0.22-0.73332-0.22-1.4911 0-0.75777 0.26888-1.4666 0.26889-0.73333 0.83111-1.2467 0.56222-0.53777 1.2466-0.8311 0.70889-0.31778 1.4422-0.44 0.75777-0.12222 1.5155-0.12222h2.2244v-1.1244q0-0.53778-0.19556-1.0267-0.19555-0.51333-0.6111-0.85555-0.39111-0.34222-0.90444-0.48889-0.51333-0.14666-1.0511-0.14666-0.61111 0-1.2222 0.22-0.6111 0.19555-1.0267 0.70888-0.41555 0.51333-0.48888 1.1244l-1.8822-0.43999q0.14667-1.0267 0.85555-1.8578 0.70888-0.85555 1.7111-1.1733 1.0267-0.34222 2.0533-0.34222 0.90443 0 1.7844 0.24444 0.87999 0.24445 1.5644 0.83111 0.70888 0.58666 1.0267 1.4422 0.34222 0.85555 0.34222 1.76v8.8733h-1.9555v-1.8333q-0.17111 0.29333-0.39111 0.56222-0.61111 0.73332-1.5156 1.1-0.90443 0.36666-1.8578 0.36666zm-1.8089-3.8378q0 0.58667 0.31777 1.1244 0.34222 0.53777 0.90444 0.75777 0.58666 0.19556 1.1978 0.19556 0.63555 0 1.2466-0.22 0.61111-0.22 1.0511-0.68444 0.46444-0.48889 0.65999-1.1 0.19556-0.63555 0.19556-1.2711v-1.1489h-2.2244q-0.56222 0-1.1489 0.0978-0.56222 0.0978-1.0756 0.39111-0.51333 0.26889-0.8311 0.78222-0.29333 0.48888-0.29333 1.0755z"
           id="path42" />
        <path
           d="m479.95 704.42v-0.12222q0-0.51333 0.19556-0.95333 0.22-0.46444 0.43999-0.90444 0.22-0.43999 0.46444-0.85555 0.26889-0.43999 0.53778-0.85554l1.8822-2.7866-1.8822-2.7866q-0.26889-0.41555-0.53778-0.83111-0.24444-0.43999-0.46444-0.87999-0.21999-0.44-0.43999-0.87999-0.19556-0.46444-0.19556-0.97777v-0.12222h1.9555v0.12222q0 0.36666 0.14667 0.70888 0.17111 0.34222 0.34222 0.66 0.19555 0.31777 0.39111 0.63555 0.21999 0.29333 0.41555 0.58666l1.3933 2.0778 1.3933-2.0778q0.19556-0.29333 0.39111-0.58666 0.22-0.31778 0.39111-0.63555 0.19555-0.31778 0.34222-0.66 0.17111-0.34222 0.17111-0.70888v-0.12222h1.9555v0.12222q0 0.51333-0.22 0.97777-0.19555 0.43999-0.41555 0.87999t-0.48889 0.87999q-0.24444 0.41556-0.51333 0.83111l-1.8822 2.7866 1.8822 2.7866q0.26889 0.41555 0.51333 0.85554 0.26889 0.41556 0.48889 0.85555 0.22 0.44 0.41555 0.90444 0.22 0.44 0.22 0.95333v0.12222h-1.9555v-0.12222q0-0.36667-0.17111-0.70889-0.14667-0.34222-0.34222-0.65999-0.17111-0.31778-0.39111-0.61111-0.19555-0.31777-0.39111-0.6111l-1.3933-2.0778-1.3933 2.0778q-0.19556 0.29333-0.41555 0.6111-0.19556 0.29333-0.39111 0.61111-0.17111 0.31777-0.34222 0.65999-0.14667 0.34222-0.14667 0.70889v0.12222z"
           id="path44" />
        <path
           d="m508.06 704.42v-16.207h-3.6666v-1.76h9.2888v1.76h-3.6666v16.207z"
           id="path46" />
        <path
           d="m516.62 704.42v-17.967h1.9555v6.8688q0.24445-0.44 0.56222-0.83111 0.51333-0.58666 1.2222-0.90443 0.73332-0.31778 1.5155-0.31778 0.75777 0 1.4911 0.31778 0.73333 0.31777 1.2222 0.92888 0.51333 0.58666 0.80666 1.32 0.29333 0.70888 0.39111 1.4666 0.12222 0.75777 0.12222 1.54v7.5777h-1.9555v-7.5777q0-0.65999-0.12222-1.2955-0.12222-0.66-0.44-1.2222-0.31777-0.58666-0.90444-0.92888-0.56221-0.36666-1.2222-0.36666-0.65999 0-1.2466 0.36666-0.56222 0.34222-0.88 0.92888-0.31777 0.56222-0.43999 1.2222-0.12223 0.63555-0.12223 1.2955v7.5777z"
           id="path48" />
        <path
           d="m533.65 704.62q-1.0755 0-2.0778-0.39111-1.0022-0.3911-1.6866-1.2222-0.68444-0.8311-0.97777-1.8578-0.26889-1.0511-0.26889-2.1022v-2.2q0-1.0511 0.26889-2.0533 0.26889-1.0266 0.90444-1.8578 0.65999-0.8311 1.6378-1.2467 0.97777-0.41555 2.0289-0.41555 1.0511 0 2.0289 0.41555 0.97777 0.41556 1.6133 1.2467 0.65999 0.83111 0.92888 1.8578 0.26889 1.0022 0.26889 2.0533v1.98h-7.7244v0.22q0 0.68444 0.14667 1.3689 0.17111 0.68444 0.56222 1.2711 0.3911 0.56222 1.0266 0.87999 0.63556 0.29334 1.32 0.29334 0.66 0 1.2711-0.26889 0.63555-0.29333 1.0266-0.85555 0.41556-0.56222 0.61111-1.1978l1.7844 0.70889q-0.31778 1.0022-1.0022 1.8089-0.68444 0.80666-1.6867 1.1978-0.97777 0.36666-2.0044 0.36666zm-3.0555-7.5533h5.7688v-0.22q0-0.68444-0.14667-1.3444-0.12222-0.66-0.48888-1.2222-0.36667-0.58666-0.97777-0.90443-0.58667-0.34222-1.2711-0.34222-0.68443 0-1.2955 0.34222-0.58666 0.31777-0.95333 0.90443-0.36666 0.56222-0.51333 1.2222-0.12222 0.65999-0.12222 1.3444z"
           id="path50" />
        <path
           d="m540.87 704.42v-12.955h1.9555v0.78221q0.0733-0.12222 0.17111-0.24444 0.56221-0.73333 1.3933-0.73333 0.85555 0 1.4178 0.73333 0.34222 0.44 0.53778 0.92888 0.17111-0.48888 0.51333-0.92888 0.56221-0.73333 1.3933-0.73333 0.85555 0 1.4178 0.73333 0.56222 0.70888 0.70889 1.54 0.17111 0.8311 0.17111 1.6866v9.191h-1.9555v-9.191q0-0.44-0.0733-0.85555-0.0489-0.43999-0.24445-0.87999-0.19555-0.46444-0.63555-0.46444-0.43999 0-0.63555 0.46444-0.19555 0.44-0.26888 0.85555-0.0489 0.41555-0.0489 0.87999v9.191h-1.9555v-9.191q0-0.44-0.0733-0.85555-0.0489-0.43999-0.24444-0.87999-0.19555-0.46444-0.63555-0.46444t-0.63555 0.46444q-0.19555 0.44-0.26889 0.87999-0.0489 0.41555-0.0489 0.85555v9.191z"
           id="path52" />
        <path
           d="m558.1 704.62q-1.0756 0-2.0778-0.39111-1.0022-0.3911-1.6867-1.2222-0.68443-0.8311-0.97777-1.8578-0.26888-1.0511-0.26888-2.1022v-2.2q0-1.0511 0.26888-2.0533 0.26889-1.0266 0.90444-1.8578 0.66-0.8311 1.6378-1.2467 0.97777-0.41555 2.0289-0.41555t2.0289 0.41555q0.97777 0.41556 1.6133 1.2467 0.66 0.83111 0.92888 1.8578 0.26889 1.0022 0.26889 2.0533v1.98h-7.7244v0.22q0 0.68444 0.14666 1.3689 0.17111 0.68444 0.56222 1.2711 0.39111 0.56222 1.0267 0.87999 0.63555 0.29334 1.32 0.29334 0.65999 0 1.2711-0.26889 0.63555-0.29333 1.0267-0.85555 0.41555-0.56222 0.6111-1.1978l1.7844 0.70889q-0.31777 1.0022-1.0022 1.8089t-1.6866 1.1978q-0.97777 0.36666-2.0044 0.36666zm-3.0555-7.5533h5.7688v-0.22q0-0.68444-0.14667-1.3444-0.12222-0.66-0.48888-1.2222-0.36666-0.58666-0.97777-0.90443-0.58666-0.34222-1.2711-0.34222t-1.2956 0.34222q-0.58666 0.31777-0.95332 0.90443-0.36667 0.56222-0.51333 1.2222-0.12222 0.65999-0.12222 1.3444z"
           id="path54" />
      </g>
    </g>
    <g
       transform="translate(-30,544.5)"
       id="g96">
      <rect
         x="30"
         y="10"
         width="272"
         height="272"
         rx="0"
         ry="0"
         id="rect60" />
      <circle
         cx="166"
         cy="146"
         r="100"
         fill="#272821"
         stroke-opacity="0"
         id="circle62" />
      <g
         transform="rotate(-18 182.57 46.294)"
         id="g66">
        <circle
           transform="translate(7.1429)"
           cx="136"
           cy="136"
           r="12"
           fill="#6e7066"
           id="circle64" />
      </g>
      <g
         transform="rotate(-21.429 177.43 61.723)"
         id="g70">
        <circle
           transform="translate(4.3922)"
           cx="136"
           cy="136"
           r="12"
           fill="#fdfff1"
           id="circle68" />
      </g>
      <g
         transform="rotate(248.67 154.42 130.75)"
         id="g74">
        <circle
           transform="translate(68.065)"
           cx="136"
           cy="136"
           r="12"
           fill="#f82570"
           id="circle72" />
      </g>
      <g
         transform="rotate(-57.692 160.08 113.77)"
         id="g78">
        <circle
           transform="translate(70.159)"
           cx="136"
           cy="136"
           r="12"
           fill="#fc961f"
           id="circle76" />
      </g>
      <g
         transform="rotate(-34.779 166.97 93.104)"
         id="g82">
        <circle
           transform="translate(39.649)"
           cx="136"
           cy="136"
           r="12"
           fill="#e4db73"
           id="circle80" />
      </g>
      <g
         transform="rotate(-10.333 206.3 -24.891)"
         id="g86">
        <circle
           transform="translate(64)"
           cx="136"
           cy="136"
           r="12"
           fill="#a6e12d"
           id="circle84" />
      </g>
      <g
         transform="rotate(99.265 146.75 153.75)"
         id="g90">
        <circle
           transform="translate(45.714)"
           cx="136"
           cy="136"
           r="12"
           fill="#66d9ee"
           id="circle88" />
      </g>
      <g
         transform="rotate(171.43 150.63 142.12)"
         id="g94">
        <circle
           transform="translate(39.529)"
           cx="136"
           cy="136"
           r="12"
           fill="#ae81ff"
           id="circle92" />
      </g>
    </g>
  </g>
</svg>
